<svg width="356" height="370" viewBox="0 0 356 370" fill="none" xmlns="http://www.w3.org/2000/svg">
<path d="M34.214 313.885C8.13817 304.797 -5.633 276.29 3.45526 250.215C12.5435 224.139 41.0496 210.368 67.1255 219.456C93.2013 228.544 210.727 322.455 210.727 322.455C210.727 322.455 60.2899 322.973 34.214 313.885Z" fill="#B3B3FF"/>
<path d="M207.492 75.925C200.279 49.2697 216.039 21.8133 242.694 14.5996C269.35 7.38586 296.806 23.1464 304.02 49.8018C311.234 76.4571 300.035 226.478 300.035 226.478C300.035 226.478 214.706 102.58 207.492 75.925Z" fill="#FFC2B3"/>
<path d="M55.2995 140.984C35.252 121.993 34.3953 90.3467 53.3859 70.2992C72.3765 50.2517 104.023 49.3949 124.071 68.3856C144.118 87.3762 212.739 221.252 212.739 221.252C212.739 221.252 75.347 159.975 55.2995 140.984Z" fill="#FBF08D"/>
</svg>
