<svg width="600" height="348" viewBox="0 0 600 348" fill="none" xmlns="http://www.w3.org/2000/svg">
<rect width="600" height="233.172" rx="116.586" transform="matrix(-1 0 0 1 600 114.182)" fill="white"/>
<ellipse rx="162.325" ry="149.038" transform="matrix(-1 0 0 1 242.885 149.038)" fill="white"/>
<ellipse rx="86.5731" ry="81.7302" transform="matrix(-1 0 0 1 431.663 132.211)" fill="white"/>
<rect width="575" height="223.455" rx="111.728" transform="matrix(-1 0 0 1 588 116.424)" fill="#111111"/>
<ellipse rx="155.561" ry="142.827" transform="matrix(-1 0 0 1 245.765 149.827)" fill="#111111"/>
<ellipse rx="82.9659" ry="78.3245" transform="matrix(-1 0 0 1 426.678 133.702)" fill="#111111"/>
<rect width="550" height="213.741" rx="106.87" transform="matrix(-1 0 0 1 575 119.667)" fill="white"/>
<ellipse rx="148.798" ry="136.618" transform="matrix(-1 0 0 1 247.645 151.618)" fill="white"/>
<ellipse rx="79.3587" ry="74.9194" transform="matrix(-1 0 0 1 420.691 136.193)" fill="white"/>
<rect width="525" height="204.025" rx="102.013" transform="matrix(-1 0 0 1 563 121.909)" fill="#111111"/>
<ellipse rx="142.034" ry="130.408" transform="matrix(-1 0 0 1 250.525 152.408)" fill="#111111"/>
<ellipse rx="75.7515" ry="71.514" transform="matrix(-1 0 0 1 415.706 137.684)" fill="#111111"/>
<rect width="500" height="194.31" rx="97.1548" transform="matrix(-1 0 0 1 550 124.152)" fill="white"/>
<ellipse rx="135.271" ry="124.198" transform="matrix(-1 0 0 1 252.405 153.198)" fill="white"/>
<ellipse rx="72.1443" ry="68.1085" transform="matrix(-1 0 0 1 409.719 139.176)" fill="white"/>
</svg>
