<svg width="225" height="225" viewBox="0 0 225 225" fill="none" xmlns="http://www.w3.org/2000/svg">
<rect width="225" height="225" rx="112.5" fill="white"/>
<path d="M118.337 39.4008C118.317 37.5226 116.779 36.0157 114.901 36.0352C113.023 36.0546 111.516 37.5929 111.535 39.4711C111.555 41.3494 115.055 50.9648 115.055 50.9648C115.055 50.9648 118.356 41.2791 118.337 39.4008Z" fill="#111111"/>
<path d="M134.128 45.9818C135.337 44.5446 135.152 42.3991 133.715 41.1898C132.278 39.9804 130.132 40.1652 128.923 41.6024C127.714 43.0396 124.102 52.614 124.102 52.614C124.102 52.614 132.918 47.419 134.128 45.9818Z" fill="#111111"/>
<path d="M139.169 62.0258C141.033 61.7948 142.357 60.0964 142.126 58.2324C141.895 56.3683 140.197 55.0444 138.333 55.2754C136.468 55.5064 127.309 60.0686 127.309 60.0686C127.309 60.0686 137.305 62.2568 139.169 62.0258Z" fill="#111111"/>
<path d="M83.5312 121.547H105.961V72.3984C105.961 67.2891 106.688 63.4453 108.141 60.8672C109.641 58.2891 111.422 57 113.484 57C114.516 57 115.477 57.3047 116.367 57.9141C117.305 58.5234 118.125 59.25 118.828 60.0938C119.531 60.8906 120.07 61.7344 120.445 62.625C120.867 63.4688 121.078 64.1484 121.078 64.6641C121.078 65.1797 120.867 65.4844 120.445 65.5781C120.07 65.625 119.625 65.8828 119.109 66.3516C118.641 66.7734 118.195 67.6406 117.773 68.9531C117.398 70.2656 117.211 72.4219 117.211 75.4219V165.703C117.211 166.922 116.789 167.766 115.945 168.234C115.148 168.75 114.211 169.008 113.133 169.008C112.289 169.008 111.445 168.891 110.602 168.656C109.758 168.422 108.984 168.117 108.281 167.742C107.625 167.367 107.062 166.922 106.594 166.406C106.172 165.938 105.961 165.422 105.961 164.859V131.602H83.5312V165.703C83.5312 166.922 83.1094 167.766 82.2656 168.234C81.4688 168.75 80.5312 169.008 79.4531 169.008C78.6094 169.008 77.7656 168.891 76.9219 168.656C76.0781 168.422 75.3047 168.117 74.6016 167.742C73.9453 167.367 73.3828 166.922 72.9141 166.406C72.4922 165.938 72.2812 165.422 72.2812 164.859V131.602H62.0156C61.2656 131.602 60.5625 131.367 59.9062 130.898C59.2969 130.43 58.7578 129.844 58.2891 129.141C57.8672 128.391 57.5156 127.594 57.2344 126.75C57 125.906 56.8828 125.109 56.8828 124.359C56.8828 123.562 57.0469 122.906 57.375 122.391C57.75 121.828 58.2891 121.547 58.9922 121.547H72.2812V75C67.8281 75 63.7266 75.75 59.9766 77.25C56.2734 78.7031 53.0625 80.8125 50.3438 83.5781C47.6719 86.2969 45.5625 89.6016 44.0156 93.4922C42.5156 97.3828 41.7656 101.742 41.7656 106.57C41.7656 109.617 42.0703 112.359 42.6797 114.797C43.2891 117.234 44.0156 119.32 44.8594 121.055C45.7031 122.742 46.5469 124.055 47.3906 124.992C48.2344 125.93 48.8906 126.398 49.3594 126.398C49.7812 126.398 50.0859 126.281 50.2734 126.047C50.4609 125.812 50.7422 125.695 51.1172 125.695C51.4922 125.695 51.7266 125.953 51.8203 126.469C51.9141 126.984 51.9609 127.5 51.9609 128.016C51.9609 129.516 51.6562 130.945 51.0469 132.305C50.4375 133.617 49.6641 134.695 48.7266 135.539C47.8359 136.336 46.8281 136.828 45.7031 137.016C44.5781 137.203 43.5 136.922 42.4688 136.172C41.2031 135.281 39.8438 134.016 38.3906 132.375C36.9844 130.688 35.6719 128.625 34.4531 126.188C33.2812 123.75 32.2969 120.938 31.5 117.75C30.75 114.516 30.375 110.93 30.375 106.992C30.375 101.883 31.0312 97.2891 32.3438 93.2109C33.7031 89.0859 35.5078 85.4531 37.7578 82.3125C40.0547 79.125 42.75 76.4062 45.8438 74.1562C48.9375 71.8594 52.2188 69.9844 55.6875 68.5312C59.2031 67.0312 62.8359 65.9297 66.5859 65.2266C70.3828 64.5234 74.1094 64.1719 77.7656 64.1719C78.5156 64.1719 79.2422 64.3359 79.9453 64.6641C80.6484 64.9453 81.2578 65.3672 81.7734 65.9297C82.2891 66.4453 82.7109 67.0781 83.0391 67.8281C83.3672 68.5781 83.5312 69.375 83.5312 70.2188V121.547ZM155.742 117.047C155.742 115.688 155.648 114.703 155.461 114.094C155.273 113.484 155.18 112.922 155.18 112.406C155.18 111.703 155.531 111.141 156.234 110.719C156.984 110.25 157.875 110.016 158.906 110.016C161.297 110.016 163.195 110.648 164.602 111.914C166.008 113.133 166.711 114.609 166.711 116.344V149.32C166.758 150.82 166.875 152.203 167.062 153.469C167.297 154.734 167.672 155.812 168.188 156.703C168.703 157.594 169.406 158.297 170.297 158.812C171.188 159.281 172.336 159.516 173.742 159.516C175.102 159.516 176.227 159.258 177.117 158.742C178.055 158.18 178.805 157.43 179.367 156.492C179.93 155.555 180.328 154.477 180.562 153.258C180.797 151.992 180.914 150.68 180.914 149.32V117.047C180.914 115.688 180.82 114.703 180.633 114.094C180.445 113.484 180.352 112.922 180.352 112.406C180.352 111.703 180.727 111.141 181.477 110.719C182.227 110.25 183.117 110.016 184.148 110.016C186.539 110.016 188.414 110.648 189.773 111.914C191.18 113.133 191.883 114.609 191.883 116.344V149.32C191.883 151.57 191.648 153.867 191.18 156.211C190.758 158.508 189.914 160.617 188.648 162.539C187.383 164.414 185.602 165.961 183.305 167.18C181.008 168.398 178.008 169.008 174.305 169.008C172.758 169.008 171.305 168.82 169.945 168.445C168.586 168.07 167.344 167.555 166.219 166.898C165.094 166.289 164.109 165.586 163.266 164.789C162.422 163.945 161.742 163.055 161.227 162.117C160.758 163.055 160.055 163.945 159.117 164.789C158.227 165.586 157.195 166.289 156.023 166.898C154.852 167.555 153.586 168.07 152.227 168.445C150.867 168.82 149.508 169.008 148.148 169.008C145.477 169.008 143.18 168.703 141.258 168.094C139.383 167.484 137.789 166.641 136.477 165.562C135.164 164.531 134.109 163.336 133.312 161.977C132.562 160.617 131.977 159.211 131.555 157.758C131.133 156.305 130.852 154.828 130.711 153.328C130.617 151.828 130.57 150.445 130.57 149.18V117.047C130.57 115.688 130.453 114.703 130.219 114.094C130.031 113.484 129.938 112.922 129.938 112.406C129.938 111.703 130.312 111.141 131.062 110.719C131.812 110.25 132.703 110.016 133.734 110.016C136.125 110.016 138 110.648 139.359 111.914C140.766 113.133 141.469 114.609 141.469 116.344V149.32C141.469 150.586 141.539 151.852 141.68 153.117C141.867 154.336 142.195 155.414 142.664 156.352C143.18 157.289 143.906 158.062 144.844 158.672C145.781 159.234 147.023 159.516 148.57 159.516C149.93 159.516 151.055 159.258 151.945 158.742C152.883 158.18 153.633 157.43 154.195 156.492C154.758 155.555 155.156 154.477 155.391 153.258C155.625 151.992 155.742 150.68 155.742 149.32V117.047Z" fill="black"/>
</svg>
