<svg width="803" height="150" viewBox="0 0 803 150" fill="none" xmlns="http://www.w3.org/2000/svg">
<path d="M0.719971 0H34.72V37C34.72 46.3888 27.1088 54 17.72 54V54C8.33113 54 0.719971 46.3888 0.719971 37V0Z" fill="#EEEEEE"/>
<path d="M54.72 0H88.72V67C88.72 76.3888 81.1088 84 71.72 84C62.3311 84 54.72 76.3888 54.72 67V0Z" fill="#EEEEEE"/>
<path d="M108.72 0H142.72V26C142.72 35.3888 135.109 43 125.72 43C116.331 43 108.72 35.3888 108.72 26V0Z" fill="#EEEEEE"/>
<path d="M162.72 0H196.29V11.215C196.29 20.4851 188.775 28 179.505 28C170.235 28 162.72 20.4851 162.72 11.215V0Z" fill="#EEEEEE"/>
<path d="M216.29 0H249.86V51.215C249.86 60.4851 242.345 68 233.075 68C223.805 68 216.29 60.4851 216.29 51.215V0Z" fill="#EEEEEE"/>
<path d="M269.86 0H303.43V83.215C303.43 92.4851 295.915 100 286.645 100C277.375 100 269.86 92.4851 269.86 83.215V0Z" fill="#EEEEEE"/>
<path d="M323.43 0H357V59.215C357 68.4851 349.485 76 340.215 76C330.945 76 323.43 68.4851 323.43 59.215V0Z" fill="#EEEEEE"/>
<path d="M447 0H480.57V44.215C480.57 53.4851 473.055 61 463.785 61C454.515 61 447 53.4851 447 44.215V0Z" fill="#EEEEEE"/>
<path d="M500.57 0H533.57V82.5C533.57 91.6127 526.183 99 517.07 99C507.957 99 500.57 91.6127 500.57 82.5V0Z" fill="#EEEEEE"/>
<path d="M553.57 0H586.57V27.5C586.57 36.6127 579.183 44 570.07 44C560.957 44 553.57 36.6127 553.57 27.5V0Z" fill="#EEEEEE"/>
<path d="M606.57 0L640.14 0V67.2114C640.14 76.4815 632.625 83.9964 623.355 83.9964C614.085 83.9964 606.57 76.4815 606.57 67.2114V0Z" fill="#EEEEEE"/>
<path d="M660.14 0H694.14V92C694.14 101.389 686.529 109 677.14 109C667.751 109 660.14 101.389 660.14 92V0Z" fill="#EEEEEE"/>
<path d="M714.14 0H748.14C748.14 7.73199 741.872 14 734.14 14H728.14C720.408 14 714.14 7.73199 714.14 0Z" fill="#EEEEEE"/>
<path d="M768.14 0H802.14V44C802.14 53.3888 794.529 61 785.14 61C775.751 61 768.14 53.3888 768.14 44V0Z" fill="#EEEEEE"/>
</svg>
